# Blender 3.3.21
# www.blender.org
mtllib MyFirstTank.mtl
o Plane
v -1.280076 0.010000 1.273306
v 1.279924 0.010000 1.273306
v -1.280076 0.010000 -1.286694
v 1.279924 0.010000 -1.286694
vn -0.0000 1.0000 -0.0000
vt 0.000000 0.000000
vt 1.000000 0.000000
vt 0.000000 1.000000
vt 1.000000 1.000000
s 0
usemtl Material.001
f 1/1/1 2/2/1 4/4/1 3/3/1
o Plane.001
v 0.590000 0.000000 1.230000
v 1.010000 0.000000 1.230000
v 0.590000 0.000000 -1.230000
v 1.010000 0.000000 -1.230000
vn -0.0000 1.0000 -0.0000
vt 0.000000 0.000000
vt 1.000000 0.000000
vt 0.000000 1.000000
vt 1.000000 1.000000
s 0
usemtl Material.002
f 5/5/2 6/6/2 8/8/2 7/7/2
o Plane.002
v -1.010000 0.000000 1.230000
v -0.590000 0.000000 1.230000
v -1.010000 0.000000 -1.230000
v -0.590000 0.000000 -1.230000
vn -0.0000 1.0000 -0.0000
vt 0.000000 0.000000
vt 1.000000 0.000000
vt 0.000000 1.000000
vt 1.000000 1.000000
s 0
usemtl Material.003
f 9/9/3 10/10/3 12/12/3 11/11/3
o Plane.003
v -0.463866 0.025714 1.057513
v 0.476134 0.025714 1.057513
v -0.463866 0.025714 -1.062487
v 0.476134 0.025714 -1.062487
vn -0.0000 1.0000 -0.0000
vt 0.000000 0.000000
vt 1.000000 0.000000
vt 0.000000 1.000000
vt 1.000000 1.000000
s 0
usemtl Material.004
f 13/13/4 14/14/4 16/16/4 15/15/4
