# Blender 3.3.21
# www.blender.org
mtllib Tank2.mtl
o Plane.003
v -96.055878 49.372635 -2.0
v -96.055878 -44.627365 -2.0
v 115.944138 49.372635 -2.0
v 115.944138 -44.627365 -2.0
org 0.18 -47.0 0.0
vn -0.0000 -0.0000 1.0000
vt 0.000000 0.000000
vt 0.000000 1.000000
vt 1.000000 0.000000
vt 1.000000 1.000000
s 0
usemtl Gun_01.png
f 13/13/4 14/14/4 16/16/4 15/15/4
o TankBody
v -127.993309 128.000076 -1.010000
v -127.993309 -127.999924 -1.010000
v 128.006699 128.000076 -1.010000
v 128.006699 -127.999924 -1.010000
vn -0.0000 -0.0000 1.0000
vt 0.000000 0.000000
vt 0.000000 1.000000
vt 1.000000 0.000000
vt 1.000000 1.000000
s 0
usemtl Hull_01.png
f 1/1/1 2/2/1 4/4/1 3/3/1
o Plane.001
v -127.088753 104.634361 0.000000
v -127.088753 62.634361 0.0000000
v 118.911247 104.634361 -0.0000000
v 118.911247 62.634361 0.000000
vn -0.0000 -0.0000 1.0000
vt 0.000000 0.000000
vt 0.000000 1.000000
vt 1.000000 0.000000
vt 1.000000 1.000000
s 0
usemtl Track_1_A.png
f 5/5/2 6/6/2 8/8/2 7/7/2
o Plane.002
v -126.465141 -62.723076 0.000000
v -126.465141 -104.723076 0.000000
v 119.534859 -62.723076 0.000000
v 119.534859 -104.723076 0.000000
vn -0.0000 -0.0000 1.0000
vt 0.000000 0.000000
vt 0.000000 1.000000
vt 1.000000 0.000000
vt 1.000000 1.000000
s 0
usemtl Track_1_A.png
f 9/9/3 10/10/3 12/12/3 11/11/3